<svg viewBox="0 0 33.4 33.4" xmlns="http://www.w3.org/2000/svg" fill="#444"><path d="m16.2.5h1.15.12a26 26 0 0 1 4.13.5 21 21 0 0 1 4.66 1.4 12.79 12.79 0 0 1 4 2.7 8.63 8.63 0 0 1 2.1 3.46 10.21 10.21 0 0 1 .16 5.12 16.88 16.88 0 0 1 -1 3.17.2.2 0 0 0 .08.28 2.55 2.55 0 0 1 .88 3 4.26 4.26 0 0 1 -3 2.75.28.28 0 0 0 -.17.13c-.27.5-.54 1-.82 1.49a23.76 23.76 0 0 1 -3.72 4.92 13.4 13.4 0 0 1 -3.49 2.52 10.43 10.43 0 0 1 -3.42 1l-.7.07h-1.04l-.12-.01a10.64 10.64 0 0 1 -5.12-1.67 15.26 15.26 0 0 1 -3.5-3.11 28 28 0 0 1 -3.27-4.94c-.12-.23-.25-.42-.54-.44a4.34 4.34 0 0 1 -2.75-2.7 2.69 2.69 0 0 1 .83-3c.1-.07.25-.13.28-.23s-.07-.24-.11-.36a18.1 18.1 0 0 1 -1.16-5.48 9.51 9.51 0 0 1 .59-3.88 6.78 6.78 0 0 1 2.17-2.95 8.19 8.19 0 0 1 3.93-1.62 12.29 12.29 0 0 1 3.09 0 .29.29 0 0 0 .22-.07 11 11 0 0 1 1-.68 9.85 9.85 0 0 1 4.04-1.32zm.55 31.2a8.43 8.43 0 0 0 2.37-.36 10.42 10.42 0 0 0 4-2.37 19.08 19.08 0 0 0 3.05-3.66 34.4 34.4 0 0 0 2-3.48.19.19 0 0 1 .17-.11 3.5 3.5 0 0 0 .65-.08 2.79 2.79 0 0 0 2-2 1.36 1.36 0 0 0 -.54-1.64c-.35-.24-.26-.25-.61 0a5.84 5.84 0 0 0 -1.08 1.14c-.62.79-1.22 1.6-1.83 2.39a10.4 10.4 0 0 1 -1.79 1.78 5.39 5.39 0 0 1 -2.35 1.09 8.67 8.67 0 0 1 -3.55-.19 7.41 7.41 0 0 1 -1.86-.78 1.39 1.39 0 0 0 -1.47 0 7.52 7.52 0 0 1 -1.8.77 10 10 0 0 1 -2.6.3 5.09 5.09 0 0 1 -2.14-.46 7.39 7.39 0 0 1 -2.37-1.68 25.66 25.66 0 0 1 -1.75-2.15c-.44-.58-.89-1.15-1.36-1.7a6.54 6.54 0 0 0 -.74-.64.12.12 0 0 0 -.13 0 1.45 1.45 0 0 0 -.78 1.55 2.82 2.82 0 0 0 1.48 2 2.43 2.43 0 0 0 1.19.28.15.15 0 0 1 .15.1l.31.6a29.31 29.31 0 0 0 3 4.7 14.32 14.32 0 0 0 3.49 3.19 9 9 0 0 0 4.89 1.41zm-11.29-17.7h.75l4.44.21c1.8.07 3.6.18 5.4.19 1.52 0 3 0 4.57-.11 2.38-.1 4.76-.23 7.14-.34h.13a2.9 2.9 0 0 0 -1-1.16 6.75 6.75 0 0 0 -2-.95 26.7 26.7 0 0 0 -3.44-.76c-1.3-.23-2.61-.44-3.9-.7a13.23 13.23 0 0 1 -3.78-1.3 5.83 5.83 0 0 1 -2-1.76l-.08-.09a1.62 1.62 0 0 1 -.06.17 5.89 5.89 0 0 1 -1.13 1.9 8.48 8.48 0 0 1 -1.81 1.45c-.56.35-1.13.69-1.68 1.06a3.9 3.9 0 0 0 -1.08 1.1 3.62 3.62 0 0 0 -.47 1.09zm3.19 3.45v.13a3.22 3.22 0 0 0 1.16 2.42 2.64 2.64 0 0 0 1.72.68 3.55 3.55 0 0 0 2.17-.75 1.31 1.31 0 0 0 .53-.75.13.13 0 0 0 -.08-.19c-.43-.18-.85-.4-1.29-.56a16.41 16.41 0 0 0 -3.23-.8zm16 0h-.11a20 20 0 0 0 -3.34.67 10.84 10.84 0 0 0 -2 .81c-.09.05-.13.11-.08.2a2 2 0 0 0 .26.48 3 3 0 0 0 1.5.87 2.69 2.69 0 0 0 1.75 0 3.15 3.15 0 0 0 1.91-2 2.9 2.9 0 0 0 .1-1.01z"/></svg>
